<svg xmlns="http://www.w3.org/2000/svg" viewBox="0 0 100 100" width="100" height="100">
  <!-- Box (stock) -->
  <polygon points="8,30 20,16 64,16 76,30" fill="#E0A96D"/>
  <rect x="8" y="30" width="68" height="56" rx="3" fill="#C98B4B"/>
  <rect x="36" y="16" width="12" height="30" fill="#F3D9B1"/>
  <rect x="14" y="70" width="18" height="4" rx="2" fill="#A96F35"/>
  <!-- Gauge (coverage) -->
  <circle cx="68" cy="68" r="28" fill="#FFFFFF"/>
  <circle cx="68" cy="68" r="28" fill="none" stroke="#2F3542" stroke-width="3"/>
  <path d="M 50 72 A 18 18 0 0 1 56.92 57.82" fill="none" stroke="#DC3545" stroke-width="7"/>
  <path d="M 58.46 56.74 A 18 18 0 0 1 77.54 56.74" fill="none" stroke="#E6AC00" stroke-width="7"/>
  <path d="M 79.08 57.82 A 18 18 0 0 1 86 72" fill="none" stroke="#198754" stroke-width="7"/>
  <line x1="68" y1="72" x2="78.6" y2="64.5" stroke="#2F3542" stroke-width="3.5" stroke-linecap="round"/>
  <circle cx="68" cy="72" r="4" fill="#2F3542"/>
</svg>
